<svg xmlns="http://www.w3.org/2000/svg" xmlns:xlink="http://www.w3.org/1999/xlink" viewBox="0 0 1000 164.43"><defs><style>.cls-1{fill:url(#名称未設定グラデーション_239);}.cls-2{fill:url(#名称未設定グラデーション_238);}.cls-3{fill:url(#名称未設定グラデーション_265);}</style><linearGradient id="名称未設定グラデーション_239" x1="8.37" y1="137.59" x2="118.08" y2="74.25" gradientUnits="userSpaceOnUse"><stop offset="0" stop-color="#3060dd"/><stop offset="0.1" stop-color="#2a71db"/><stop offset="0.38" stop-color="#1d9bd5"/><stop offset="0.63" stop-color="#13bad1"/><stop offset="0.85" stop-color="#0dcccf"/><stop offset="1" stop-color="#0bd3ce"/></linearGradient><linearGradient id="名称未設定グラデーション_238" x1="64.52" y1="80.94" x2="159.71" y2="135.9" gradientUnits="userSpaceOnUse"><stop offset="0" stop-color="#3060dd"/><stop offset="0.15" stop-color="#2e67dc"/><stop offset="0.37" stop-color="#277bd9"/><stop offset="0.64" stop-color="#1d9bd5"/><stop offset="0.93" stop-color="#0fc8cf"/><stop offset="1" stop-color="#0bd3ce"/></linearGradient><linearGradient id="名称未設定グラデーション_265" x1="15.9" y1="45.32" x2="174.99" y2="45.32" gradientUnits="userSpaceOnUse"><stop offset="0" stop-color="#3060dd"/><stop offset="0.16" stop-color="#2c6cdb"/><stop offset="0.45" stop-color="#228ad7"/><stop offset="0.84" stop-color="#13bcd1"/><stop offset="1" stop-color="#0bd3ce"/></linearGradient></defs><g id="Layer_2" data-name="Layer 2"><g id="logo"><path class="cls-1" d="M101.16,45C51,64.54-3.09,149.89,72.16,156.42-70.39,144.05,30.31,43.08,101.16,45Z"/><path class="cls-2" d="M66.85,76.9c22.08,66.92,101.41,70,108.94,20.48C165.13,167.45,70.64,184.78,66.85,76.9Z"/><path class="cls-3" d="M151.85,8c-47.14-21.5-113,2-135.95,48.39C113.29-36.21,212.43,54,83.09,90.51,138.38,93.71,213.58,36.2,151.85,8Z"/><path d="M721.64,12.93a1.49,1.49,0,0,0-1.22-.63h-3.57a1.53,1.53,0,0,0-1.46,1.13L684.94,119.56,654.35,13.42a1.54,1.54,0,0,0-1.46-1.12h-5.28a1.52,1.52,0,0,0-1.46,1.13l-30,106.09L585.73,13.43a1.53,1.53,0,0,0-1.46-1.13H580.7a1.52,1.52,0,0,0-1.23.63,1.65,1.65,0,0,0-.23,1.4l32.91,113.61a1.53,1.53,0,0,0,1.46,1.13h5.28a1.54,1.54,0,0,0,1.46-1.14L650.26,22.26l30.51,105.68a1.53,1.53,0,0,0,1.46,1.13h5.28a1.53,1.53,0,0,0,1.46-1.13L721.88,14.33A1.62,1.62,0,0,0,721.64,12.93Z"/><path d="M786,119.58c-.25-3.09-.38-6-.38-8.78V78.39c0-9.74-2.55-17-7.58-21.64s-11.82-6.9-20.34-6.9a36.93,36.93,0,0,0-12.85,2.42,36.09,36.09,0,0,0-11.75,7.12,1.6,1.6,0,0,0-.24,2.09l1.86,2.73a1.54,1.54,0,0,0,1.08.66H736a1.53,1.53,0,0,0,1-.4,33.85,33.85,0,0,1,9.44-6.15,28.07,28.07,0,0,1,11.28-2.28c6.42,0,11.67,1.79,15.62,5.31s5.84,9.14,5.84,16.86v4.37h-10.9a107.11,107.11,0,0,0-12.52.81A44.72,44.72,0,0,0,742.64,87a28.45,28.45,0,0,0-10.42,7.89c-2.86,3.48-4.32,8.09-4.32,13.69a21.88,21.88,0,0,0,2.28,10.22,20.81,20.81,0,0,0,6,7.11,26.12,26.12,0,0,0,8.15,4.09,31.54,31.54,0,0,0,9.05,1.34,31.14,31.14,0,0,0,17.1-5.13,25.89,25.89,0,0,0,9-10.1c.06.93.13,1.87.22,2.82.15,1.61.28,3.21.38,4.77a34.57,34.57,0,0,0,.49,4.13,1.55,1.55,0,0,0,1.5,1.27h3.26a1.53,1.53,0,0,0,1.16-.56,1.6,1.6,0,0,0,.34-1.27C786.52,125.23,786.23,122.65,786,119.58Zm-6.84-25.31a51,51,0,0,1-1.21,10.81,28.54,28.54,0,0,1-4.19,9.88,23.71,23.71,0,0,1-8,7.3c-3.27,1.89-7.46,2.85-12.45,2.85a25.89,25.89,0,0,1-6.53-.91,19.73,19.73,0,0,1-6.21-2.84,14.66,14.66,0,0,1-4.5-5,15.83,15.83,0,0,1-1.73-7.8c0-4.29,1-7.72,3.12-10.2a21.37,21.37,0,0,1,8.34-6,42.61,42.61,0,0,1,11.55-2.86,113,113,0,0,1,12.26-.71h9.5Z"/><path d="M817.92,9.32H814.5A1.55,1.55,0,0,0,813,10.9V127.49a1.55,1.55,0,0,0,1.52,1.58h3.42a1.55,1.55,0,0,0,1.52-1.58V10.9A1.55,1.55,0,0,0,817.92,9.32Z"/><path d="M853,9.32h-3.42a1.55,1.55,0,0,0-1.52,1.58V127.49a1.55,1.55,0,0,0,1.52,1.58H853a1.55,1.55,0,0,0,1.52-1.58V10.9A1.55,1.55,0,0,0,853,9.32Z"/><path d="M945.11,73.32a35.14,35.14,0,0,0-6.43-11.85,32.55,32.55,0,0,0-10.86-8.42,34.59,34.59,0,0,0-15.28-3.2,33.47,33.47,0,0,0-25.31,11.26,39.91,39.91,0,0,0-7.54,12.69,45.52,45.52,0,0,0-2.75,16,50.47,50.47,0,0,0,2.65,16.58,38.53,38.53,0,0,0,7.62,13.21A35.18,35.18,0,0,0,899,128.21a36,36,0,0,0,15,3.1,36.55,36.55,0,0,0,17.07-3.86A38.23,38.23,0,0,0,944,116.26a1.61,1.61,0,0,0-.21-2.15l-2.48-2.25a1.51,1.51,0,0,0-1-.39h-.16a1.51,1.51,0,0,0-1.06.62,31.88,31.88,0,0,1-10.81,9.57A30,30,0,0,1,914,125a27.72,27.72,0,0,1-23.1-11,34.74,34.74,0,0,1-5.64-11.28,45.93,45.93,0,0,1-1.85-11.29h62.26a1.54,1.54,0,0,0,1.52-1.57v-3A43.88,43.88,0,0,0,945.11,73.32Zm-45.85-14a25,25,0,0,1,13-3.24,29.08,29.08,0,0,1,11.53,2.21,25.21,25.21,0,0,1,8.79,6.2,30,30,0,0,1,5.82,9.69,37,37,0,0,1,2.24,11H883.62a36.37,36.37,0,0,1,6.7-17.78A29.8,29.8,0,0,1,899.26,59.29Z"/><path d="M1000,127.38l-.47-2.73a1.58,1.58,0,0,0-.75-1.1,1.53,1.53,0,0,0-.75-.2,1.29,1.29,0,0,0-.55.11,19.77,19.77,0,0,1-7.37,1.33c-3.58,0-6.34-.94-8.45-2.89s-3.06-5.12-3.06-9.65V58.3H998a1.55,1.55,0,0,0,1.52-1.58v-3A1.54,1.54,0,0,0,998,52.1H978.58V32a1.56,1.56,0,0,0-1.53-1.58h-3.41A1.55,1.55,0,0,0,972.11,32V52.1H958.27a1.55,1.55,0,0,0-1.53,1.57v3a1.55,1.55,0,0,0,1.53,1.58h14v54a21.86,21.86,0,0,0,3.88,13.22c2.67,3.66,7.1,5.52,13.17,5.52a26.62,26.62,0,0,0,5.09-.51,22.44,22.44,0,0,0,4.65-1.38A1.58,1.58,0,0,0,1000,127.38Z"/><path d="M372.23,76.65q0-8.5-5-12.6T354.07,60a28.17,28.17,0,0,0-11.73,2.49,29.59,29.59,0,0,0-9.23,6.34l-7.77-9.63a39.19,39.19,0,0,1,13.28-8.35,46.08,46.08,0,0,1,16.84-3.05,36.94,36.94,0,0,1,13.74,2.33A25.09,25.09,0,0,1,384.34,65.9a36.06,36.06,0,0,1,1.86,11.71v33.22q0,3.86.24,8.1a41.87,41.87,0,0,0,.85,7h-13.2A49,49,0,0,1,372.85,115h-.47a28.64,28.64,0,0,1-10.16,9.47,29.67,29.67,0,0,1-14.52,3.37,36.89,36.89,0,0,1-9.08-1.2,25.91,25.91,0,0,1-8.62-3.93,21.25,21.25,0,0,1-9-18.3q0-8.67,4.5-13.72A28.33,28.33,0,0,1,337.3,83a64.3,64.3,0,0,1,16.45-3.45q9.17-.81,18.48-.81Zm-3.57,13q-5.45,0-11.26.48a50.46,50.46,0,0,0-10.55,1.92A19.72,19.72,0,0,0,339,96.39a10,10,0,0,0-3.11,7.7,11,11,0,0,0,1.32,5.62,11.19,11.19,0,0,0,3.49,3.69,13.72,13.72,0,0,0,4.82,2A25.59,25.59,0,0,0,351,116q10.25,0,15.76-6.34t5.51-16v-4Z"/><path d="M438.52,109.55h.31l20.34-59.7h15.52l-35.7,94a62.54,62.54,0,0,1-4,8.58,25.91,25.91,0,0,1-5.12,6.42,21.08,21.08,0,0,1-6.91,4.1,27.5,27.5,0,0,1-9.39,1.44q-2.34,0-4.74-.24a33.11,33.11,0,0,1-4.89-.88L405.3,150a22.41,22.41,0,0,0,7.29,1.28q5.75,0,8.54-3.29a32.39,32.39,0,0,0,5.13-9.39l4.65-12.67L399.4,49.85h16.3Z"/><path d="M528.57,69.11a19.78,19.78,0,0,0-17.08-9.47,22.68,22.68,0,0,0-5,.56A14.17,14.17,0,0,0,502.1,62,9.62,9.62,0,0,0,499,65a8.4,8.4,0,0,0-1.16,4.58A7.63,7.63,0,0,0,502,76.73q4.19,2.33,12.57,4.25a76,76,0,0,1,9.78,3,30.51,30.51,0,0,1,7.84,4.41,18.16,18.16,0,0,1,7.07,15,23.88,23.88,0,0,1-2.49,11.39,21.84,21.84,0,0,1-6.59,7.62,26.6,26.6,0,0,1-9.4,4.26A46.1,46.1,0,0,1,509.94,128a41.74,41.74,0,0,1-16.38-3.37,32.16,32.16,0,0,1-13.28-10.27l10.4-9.15a24.11,24.11,0,0,0,8.16,7.55,22.16,22.16,0,0,0,11.41,3,24.57,24.57,0,0,0,5.35-.57,14.79,14.79,0,0,0,4.66-1.84A9.79,9.79,0,0,0,523.6,110a10.32,10.32,0,0,0,1.24-5.3A8.36,8.36,0,0,0,520,96.87a64.34,64.34,0,0,0-14.36-4.82q-3.73-1-7.53-2.32A25,25,0,0,1,491.15,86a17.73,17.73,0,0,1-7-14.93,21.61,21.61,0,0,1,2.41-10.51,21.36,21.36,0,0,1,6.29-7.22,27.16,27.16,0,0,1,8.85-4.17A38.44,38.44,0,0,1,512,47.76,38,38,0,0,1,527.25,51a25.58,25.58,0,0,1,11.41,9.31Z"/><path d="M312.15,125.92,281.41,73.76Q293.2,71.68,300.66,64t7.45-20.22A31.86,31.86,0,0,0,305,29.07a26.24,26.24,0,0,0-8.47-9.71A36.71,36.71,0,0,0,284.05,14,65.64,65.64,0,0,0,269,12.3H233.75V125.92h15.19V25.76h16.77v0h2.19a49,49,0,0,1,9.47.88,23.11,23.11,0,0,1,7.84,3,16,16,0,0,1,5.36,5.54,16.81,16.81,0,0,1,2,8.58,16.83,16.83,0,0,1-2,8.59A16.16,16.16,0,0,1,285.06,58a24.75,24.75,0,0,1-8.16,3.13,49.16,49.16,0,0,1-10.09,1h-1.1V75.61l27.81,50.31Z"/></g></g></svg>